<svg width="24" height="24" viewBox="0 0 24 24" fill="none" xmlns="http://www.w3.org/2000/svg">
<g id="collections_bookmark">
<mask id="mask0_1007_11126" style="mask-type:alpha" maskUnits="userSpaceOnUse" x="0" y="0" width="24" height="24">
<rect id="Bounding box" y="0.71875" width="24" height="24" fill="#D9D9D9"/>
</mask>
<g mask="url(#mask0_1007_11126)">
<path id="collections_bookmark_2" d="M8.05 16.7188H19.45C19.5333 16.7188 19.6043 16.6894 19.663 16.6307C19.721 16.5728 19.75 16.5021 19.75 16.4187V5.01875C19.75 4.93542 19.721 4.86442 19.663 4.80575C19.6043 4.74775 19.5333 4.71875 19.45 4.71875H17.75V10.4688C17.75 10.6521 17.675 10.7854 17.525 10.8687C17.375 10.9521 17.2167 10.9521 17.05 10.8687L15.5 9.91875L13.95 10.8687C13.7833 10.9521 13.625 10.9521 13.475 10.8687C13.325 10.7854 13.25 10.6521 13.25 10.4688V4.71875H8.05C7.96667 4.71875 7.896 4.74775 7.838 4.80575C7.77933 4.86442 7.75 4.93542 7.75 5.01875V16.4187C7.75 16.5021 7.77933 16.5728 7.838 16.6307C7.896 16.6894 7.96667 16.7188 8.05 16.7188ZM8.05 18.2188C7.55 18.2188 7.125 18.0438 6.775 17.6938C6.425 17.3438 6.25 16.9187 6.25 16.4187V5.01875C6.25 4.51875 6.425 4.09375 6.775 3.74375C7.125 3.39375 7.55 3.21875 8.05 3.21875H19.45C19.95 3.21875 20.375 3.39375 20.725 3.74375C21.075 4.09375 21.25 4.51875 21.25 5.01875V16.4187C21.25 16.9187 21.075 17.3438 20.725 17.6938C20.375 18.0438 19.95 18.2188 19.45 18.2188H8.05ZM4.55 21.7188C4.05 21.7188 3.625 21.5438 3.275 21.1938C2.925 20.8438 2.75 20.4188 2.75 19.9188V7.76875C2.75 7.56875 2.821 7.39375 2.963 7.24375C3.10433 7.09375 3.28333 7.01875 3.5 7.01875C3.71667 7.01875 3.89567 7.09375 4.037 7.24375C4.179 7.39375 4.25 7.56875 4.25 7.76875V19.9188C4.25 20.0021 4.27933 20.0731 4.338 20.1318C4.396 20.1898 4.46667 20.2188 4.55 20.2188H16.7C16.9 20.2188 17.075 20.2894 17.225 20.4307C17.375 20.5728 17.45 20.7521 17.45 20.9688C17.45 21.1854 17.375 21.3647 17.225 21.5068C17.075 21.6481 16.9 21.7188 16.7 21.7188H4.55ZM8.05 4.71875H7.75H19.75H19.45H8.05Z" fill="#1C1B1F"/>
</g>
</g>
</svg>
