<svg width="44" height="29" viewBox="0 0 44 29" fill="none" xmlns="http://www.w3.org/2000/svg">
<g id="Frame" clip-path="url(#clip0_1007_11097)">
<g id="Group">
<g id="Layer 2">
<g id="Group_2">
<path id="Vector" d="M29.1796 0H13.5437C9.91676 0 6.97656 2.93493 6.97656 6.55534V22.1632C6.97656 25.7836 9.91676 28.7186 13.5437 28.7186H29.1796C32.8065 28.7186 35.7467 25.7836 35.7467 22.1632V6.55534C35.7467 2.93493 32.8065 0 29.1796 0Z" fill="url(#paint0_linear_1007_11097)"/>
<g id="Group_3">
<path id="Vector_2" d="M29.0741 0H13.4382C9.81129 0 6.87109 2.93493 6.87109 6.55534V22.1632C6.87109 25.7836 9.81129 28.7186 13.4382 28.7186H29.0741C32.701 28.7186 35.6412 25.7836 35.6412 22.1632V6.55534C35.6412 2.93493 32.701 0 29.0741 0Z" fill="url(#paint1_linear_1007_11097)"/>
<g id="Group_4">
<g id="Group_5" style="mix-blend-mode:overlay" opacity="0.33">
<path id="Vector_3" d="M29.0741 0H13.4382C9.81129 0 6.87109 2.93493 6.87109 6.55534V22.1632C6.87109 25.7836 9.81129 28.7186 13.4382 28.7186H29.0741C32.701 28.7186 35.6412 25.7836 35.6412 22.1632V6.55534C35.6412 2.93493 32.701 0 29.0741 0Z" fill="#35404C"/>
</g>
</g>
</g>
<g id="Clip path group">
<mask id="mask0_1007_11097" style="mask-type:luminance" maskUnits="userSpaceOnUse" x="6" y="0" width="38" height="29">
<g id="clippath">
<path id="Vector_4" d="M29.1799 28.7186H13.4382C9.81148 28.7186 6.87109 25.7835 6.87109 22.1632V6.55534C6.87109 2.93511 9.81104 0 13.4382 0H29.1799C32.8066 0 43.9993 4.59513 43.9993 8.21536L35.7466 22.1632C35.7466 25.7835 32.8062 28.7186 29.1795 28.7186H29.1799Z" fill="white"/>
</g>
</mask>
<g mask="url(#mask0_1007_11097)">
<g id="Group_6">
<g id="Group_7">
<path id="Vector_5" d="M25.9835 7.8437C17.706 18.2291 0.389648 25.0208 0.389648 25.0208L7.86508 24.8657C9.61774 24.7984 14.5236 23.5389 16.4416 20.6794C16.4425 20.6781 16.4403 20.6746 16.4416 20.675C19.0343 21.6404 25.7803 22.4063 36.2083 15.4665C40.6206 12.3854 42.7005 9.75352 42.7005 9.75352C42.7005 9.75352 31.2297 11.7203 25.9835 7.84326V7.8437Z" fill="url(#paint2_linear_1007_11097)"/>
<path id="Vector_6" d="M25.9835 7.8437C17.706 18.2291 0.389648 25.0208 0.389648 25.0208L7.86508 24.8657C9.61774 24.7984 14.5236 23.5389 16.4416 20.6794C16.4425 20.6781 16.4403 20.6746 16.4416 20.675C19.0343 21.6404 25.7803 22.4063 36.2083 15.4665C40.6206 12.3854 42.7005 9.75352 42.7005 9.75352C42.7005 9.75352 31.2297 11.7203 25.9835 7.84326V7.8437Z" fill="url(#paint3_radial_1007_11097)"/>
<path id="Vector_7" d="M25.9835 7.8437C17.706 18.2291 0.389648 25.0208 0.389648 25.0208L7.86508 24.8657C9.61774 24.7984 14.5236 23.5389 16.4416 20.6794C16.4425 20.6781 16.4403 20.6746 16.4416 20.675C19.0343 21.6404 25.7803 22.4063 36.2083 15.4665C40.6206 12.3854 42.7005 9.75352 42.7005 9.75352C42.7005 9.75352 31.2297 11.7203 25.9835 7.84326V7.8437Z" fill="url(#paint4_linear_1007_11097)"/>
<path id="Vector_8" d="M25.6688 7.37463C25.6688 7.37463 25.6583 7.38636 25.6522 7.39288C16.7967 17.0832 0.224609 23.8223 0.224609 23.8223L7.75401 23.9313C9.4849 23.9379 14.1549 22.7688 16.5047 19.6951C16.5038 19.6951 16.5042 19.6951 16.5047 19.6946C16.5047 19.6946 16.5042 19.6951 16.5047 19.6951C19.6648 19.9397 24.6107 19.9266 34.8633 12.4125C38.8905 9.35831 41.2137 6.91064 41.2137 6.91064C41.2137 6.91064 32.2716 8.88954 25.6688 7.37463Z" fill="url(#paint5_linear_1007_11097)"/>
<path id="Vector_9" d="M25.6688 7.37463C25.6688 7.37463 25.6583 7.38636 25.6522 7.39288C16.7967 17.0832 0.224609 23.8223 0.224609 23.8223L7.75401 23.9313C9.4849 23.9379 14.1549 22.7688 16.5047 19.6951C16.5038 19.6951 16.5042 19.6951 16.5047 19.6946C16.5047 19.6946 16.5042 19.6951 16.5047 19.6951C19.6648 19.9397 24.6107 19.9266 34.8633 12.4125C38.8905 9.35831 41.2137 6.91064 41.2137 6.91064C41.2137 6.91064 32.2716 8.88954 25.6688 7.37463Z" fill="url(#paint6_linear_1007_11097)"/>
<g id="Group_8">
<path id="Vector_10" d="M25.5194 7.12524C12.9232 17.9447 0 22.7314 0 22.7314L9.58584 22.4937L9.8522 22.4455C10.9276 22.2405 14.1457 21.4133 16.4254 19.4122C16.4254 19.4122 17.2802 19.3553 17.2811 19.3549C24.0802 17.7904 32.1336 11.749 32.2511 11.6708C37.0877 8.14445 39.7352 4.73145 39.7352 4.73145C39.7352 4.73145 31.0329 6.94147 25.519 7.12524H25.5194Z" fill="url(#paint7_linear_1007_11097)"/>
<path id="Vector_11" d="M25.5194 7.12524C12.9232 17.9447 0 22.7314 0 22.7314L9.58584 22.4937L9.8522 22.4455C10.9276 22.2405 14.1457 21.4133 16.4254 19.4122C16.4254 19.4122 17.2802 19.3553 17.2811 19.3549C24.0802 17.7904 32.1336 11.749 32.2511 11.6708C37.0877 8.14445 39.7352 4.73145 39.7352 4.73145C39.7352 4.73145 31.0329 6.94147 25.519 7.12524H25.5194Z" fill="url(#paint8_linear_1007_11097)"/>
<path id="Vector_12" d="M16.3191 19.1012C14.0394 21.1023 10.9275 22.2405 9.85254 22.4456L11.2757 22.1884C18.9657 20.4554 26.7071 15.7134 32.2514 11.6709C32.1335 11.7491 24.0918 17.751 16.3191 19.1012Z" fill="url(#paint9_linear_1007_11097)"/>
</g>
<path id="Vector_13" d="M16.5055 19.6943C14.1553 22.768 9.48621 23.9375 7.75488 23.931L8.25757 23.9384C19.4738 22.6229 28.9852 16.8713 34.8642 12.4121C24.6116 19.9258 19.6653 19.9384 16.5051 19.6943H16.5055Z" fill="url(#paint10_linear_1007_11097)"/>
<path id="Vector_14" d="M16.5357 20.6838C16.5357 20.6838 16.4783 20.6682 16.4774 20.6695C14.1502 23.4473 9.65348 24.7928 7.90039 24.8602L8.36652 24.8506C21.613 23.8427 30.7419 19.3027 36.2436 15.4609C25.8156 22.4008 19.2189 21.3494 16.5357 20.6838Z" fill="url(#paint11_linear_1007_11097)"/>
</g>
</g>
</g>
</g>
</g>
</g>
</g>
</g>
<defs>
<linearGradient id="paint0_linear_1007_11097" x1="28.9254" y1="30.21" x2="6.2687" y2="-17.4394" gradientUnits="userSpaceOnUse">
<stop stop-color="#0065FF"/>
<stop offset="1" stop-color="#C1FFFF"/>
</linearGradient>
<linearGradient id="paint1_linear_1007_11097" x1="28.82" y1="30.21" x2="6.16323" y2="-17.4394" gradientUnits="userSpaceOnUse">
<stop stop-color="#0094FF"/>
<stop offset="1" stop-color="#C1FFFF"/>
</linearGradient>
<linearGradient id="paint2_linear_1007_11097" x1="11.9694" y1="16.8501" x2="56.6704" y2="12.3948" gradientUnits="userSpaceOnUse">
<stop stop-color="#EFEEFF"/>
<stop offset="0.17" stop-color="#E5E9FF"/>
<stop offset="0.44" stop-color="#CCDEFF"/>
<stop offset="0.79" stop-color="#A3CBFF"/>
<stop offset="1" stop-color="#87BFFF"/>
</linearGradient>
<radialGradient id="paint3_radial_1007_11097" cx="0" cy="0" r="1" gradientUnits="userSpaceOnUse" gradientTransform="translate(16.9451 15.5456) rotate(-16.4321) scale(26.3213 10.7755)">
<stop stop-color="#1249FF"/>
<stop offset="1" stop-color="#CCD7F6" stop-opacity="0"/>
</radialGradient>
<linearGradient id="paint4_linear_1007_11097" x1="23.7899" y1="21.1892" x2="26.5628" y2="25.6586" gradientUnits="userSpaceOnUse">
<stop stop-color="white" stop-opacity="0"/>
<stop offset="0.28" stop-color="white" stop-opacity="0.5"/>
</linearGradient>
<linearGradient id="paint5_linear_1007_11097" x1="4.12413" y1="9.39987" x2="48.8548" y2="19.303" gradientUnits="userSpaceOnUse">
<stop stop-color="#EFEEFF"/>
<stop offset="0.17" stop-color="#E5E9FF"/>
<stop offset="0.44" stop-color="#CCDEFF"/>
<stop offset="0.79" stop-color="#A3CBFF"/>
<stop offset="1" stop-color="#87BFFF"/>
</linearGradient>
<linearGradient id="paint6_linear_1007_11097" x1="22.6989" y1="18.2534" x2="24.8312" y2="20.8527" gradientUnits="userSpaceOnUse">
<stop stop-color="#EFEEFF" stop-opacity="0"/>
<stop offset="0.08" stop-color="#EFEEFF" stop-opacity="0.04"/>
<stop offset="0.23" stop-color="#F1F0FF" stop-opacity="0.14"/>
<stop offset="0.41" stop-color="#F3F3FF" stop-opacity="0.3"/>
<stop offset="0.62" stop-color="#F7F6FF" stop-opacity="0.53"/>
<stop offset="0.86" stop-color="#FBFBFF" stop-opacity="0.81"/>
<stop offset="1" stop-color="white"/>
</linearGradient>
<linearGradient id="paint7_linear_1007_11097" x1="-0.40755" y1="21.638" x2="40.356" y2="6.38599" gradientUnits="userSpaceOnUse">
<stop stop-color="white"/>
<stop offset="0.7" stop-color="#F5FFFF"/>
<stop offset="1" stop-color="#F0FFFF"/>
</linearGradient>
<linearGradient id="paint8_linear_1007_11097" x1="25.4106" y1="18.3511" x2="27.3195" y2="19.9485" gradientUnits="userSpaceOnUse">
<stop stop-color="white" stop-opacity="0"/>
<stop offset="0.08" stop-color="white" stop-opacity="0.04"/>
<stop offset="0.23" stop-color="white" stop-opacity="0.14"/>
<stop offset="0.41" stop-color="white" stop-opacity="0.3"/>
<stop offset="0.62" stop-color="white" stop-opacity="0.53"/>
<stop offset="0.86" stop-color="white" stop-opacity="0.81"/>
<stop offset="1" stop-color="white"/>
</linearGradient>
<linearGradient id="paint9_linear_1007_11097" x1="15.5604" y1="9.14916" x2="29.7444" y2="29.644" gradientUnits="userSpaceOnUse">
<stop stop-color="#EFEEFF"/>
<stop offset="0.08" stop-color="#E5E9FF"/>
<stop offset="0.22" stop-color="#CCDEFF"/>
<stop offset="0.4" stop-color="#A3CBFF"/>
<stop offset="0.5" stop-color="#87BFFF"/>
<stop offset="0.63" stop-color="#87BFFF"/>
</linearGradient>
<linearGradient id="paint10_linear_1007_11097" x1="7.38771" y1="22.7146" x2="35.4295" y2="14.3026" gradientUnits="userSpaceOnUse">
<stop stop-color="#7CAAFF"/>
<stop offset="1" stop-color="#88CAFF"/>
</linearGradient>
<linearGradient id="paint11_linear_1007_11097" x1="21.9034" y1="19.4317" x2="22.632" y2="22.5619" gradientUnits="userSpaceOnUse">
<stop stop-color="#4A98EF"/>
<stop offset="0.24" stop-color="#3D92E9"/>
<stop offset="0.69" stop-color="#1B83D9"/>
<stop offset="1" stop-color="#0077CD"/>
</linearGradient>
<clipPath id="clip0_1007_11097">
<rect width="44" height="28.7186" fill="white"/>
</clipPath>
</defs>
</svg>
