<svg width="24" height="24" viewBox="0 0 24 24" fill="none" xmlns="http://www.w3.org/2000/svg">
<g id="group">
<mask id="mask0_1007_11133" style="mask-type:alpha" maskUnits="userSpaceOnUse" x="0" y="0" width="24" height="24">
<rect id="Bounding box" y="0.71875" width="24" height="24" fill="#D9D9D9"/>
</mask>
<g mask="url(#mask0_1007_11133)">
<path id="group_2" d="M2.6998 20.0189C2.4498 20.0189 2.23714 19.9356 2.0618 19.7689C1.88714 19.6023 1.7998 19.3856 1.7998 19.1189V17.7939C1.7998 17.2773 1.93314 16.8189 2.1998 16.4189C2.46647 16.0189 2.8248 15.7023 3.2748 15.4689C4.2248 15.0189 5.17914 14.6649 6.1378 14.4069C7.09581 14.1483 8.1498 14.0189 9.2998 14.0189C10.4498 14.0189 11.5041 14.1483 12.4628 14.4069C13.4208 14.6649 14.3748 15.0189 15.3248 15.4689C15.7748 15.7023 16.1331 16.0189 16.3998 16.4189C16.6665 16.8189 16.7998 17.2773 16.7998 17.7939V19.1189C16.7998 19.3856 16.7125 19.6023 16.5378 19.7689C16.3625 19.9356 16.1498 20.0189 15.8998 20.0189H2.6998ZM18.3998 20.0189C18.5331 19.9189 18.6331 19.7899 18.6998 19.6319C18.7665 19.4733 18.7998 19.3023 18.7998 19.1189V17.6689C18.7998 17.0189 18.6371 16.3979 18.3118 15.8059C17.9871 15.2146 17.5331 14.7023 16.9498 14.2689C17.6165 14.3689 18.2498 14.5229 18.8498 14.7309C19.4498 14.9396 20.0248 15.1856 20.5748 15.4689C21.0915 15.7523 21.4915 16.0816 21.7748 16.4569C22.0581 16.8316 22.1998 17.2356 22.1998 17.6689V19.1189C22.1998 19.3856 22.1125 19.6023 21.9378 19.7689C21.7625 19.9356 21.5498 20.0189 21.2998 20.0189H18.3998ZM9.2998 12.4189C8.33314 12.4189 7.50814 12.0729 6.8248 11.3809C6.14147 10.6896 5.7998 9.86895 5.7998 8.91895C5.7998 7.95228 6.14147 7.12728 6.8248 6.44395C7.50814 5.76061 8.33314 5.41895 9.2998 5.41895C10.2665 5.41895 11.0915 5.76061 11.7748 6.44395C12.4581 7.12728 12.7998 7.95228 12.7998 8.91895C12.7998 9.86895 12.4581 10.6896 11.7748 11.3809C11.0915 12.0729 10.2665 12.4189 9.2998 12.4189ZM17.9248 8.91895C17.9248 9.86895 17.5831 10.6896 16.8998 11.3809C16.2165 12.0729 15.3915 12.4189 14.4248 12.4189C14.3248 12.4189 14.1871 12.4063 14.0118 12.3809C13.8371 12.3563 13.6915 12.3273 13.5748 12.2939C13.9748 11.8106 14.2791 11.2816 14.4878 10.7069C14.6958 10.1316 14.7998 9.53561 14.7998 8.91895C14.7998 8.28561 14.6915 7.68561 14.4748 7.11895C14.2581 6.55228 13.9581 6.02728 13.5748 5.54395C13.7081 5.49395 13.8498 5.46061 13.9998 5.44395C14.1498 5.42728 14.2915 5.41895 14.4248 5.41895C15.3915 5.41895 16.2165 5.76061 16.8998 6.44395C17.5831 7.12728 17.9248 7.95228 17.9248 8.91895ZM3.2998 18.5189H15.2998V17.7939C15.2998 17.5939 15.2458 17.4106 15.1378 17.2439C15.0291 17.0773 14.8665 16.9356 14.6498 16.8189C13.8165 16.4023 12.9665 16.0813 12.0998 15.8559C11.2331 15.6313 10.2998 15.5189 9.2998 15.5189C8.2998 15.5189 7.36247 15.6313 6.4878 15.8559C5.61247 16.0813 4.76647 16.4023 3.9498 16.8189C3.71647 16.9356 3.5498 17.0773 3.4498 17.2439C3.3498 17.4106 3.2998 17.5939 3.2998 17.7939V18.5189ZM9.2998 10.9189C9.8498 10.9189 10.3208 10.7229 10.7128 10.3309C11.1041 9.93961 11.2998 9.46895 11.2998 8.91895C11.2998 8.36895 11.1041 7.89795 10.7128 7.50595C10.3208 7.11461 9.8498 6.91895 9.2998 6.91895C8.7498 6.91895 8.27914 7.11461 7.8878 7.50595C7.4958 7.89795 7.2998 8.36895 7.2998 8.91895C7.2998 9.46895 7.4958 9.93961 7.8878 10.3309C8.27914 10.7229 8.7498 10.9189 9.2998 10.9189Z" fill="#1C1B1F"/>
</g>
</g>
</svg>
