<svg width="24" height="24" viewBox="0 0 24 24" fill="none" xmlns="http://www.w3.org/2000/svg">
<g id="work">
<mask id="mask0_1007_11138" style="mask-type:alpha" maskUnits="userSpaceOnUse" x="0" y="0" width="24" height="24">
<rect id="Bounding box" y="0.71875" width="24" height="24" fill="#D9D9D9"/>
</mask>
<g mask="url(#mask0_1007_11138)">
<path id="work_2" d="M4.3 21.2188C3.8 21.2188 3.375 21.0438 3.025 20.6938C2.675 20.3438 2.5 19.9188 2.5 19.4188V9.01875C2.5 8.51875 2.675 8.09375 3.025 7.74375C3.375 7.39375 3.8 7.21875 4.3 7.21875H8.5V5.51875C8.5 5.01875 8.675 4.59375 9.025 4.24375C9.375 3.89375 9.8 3.71875 10.3 3.71875H13.7C14.2 3.71875 14.625 3.89375 14.975 4.24375C15.325 4.59375 15.5 5.01875 15.5 5.51875V7.21875H19.7C20.2 7.21875 20.625 7.39375 20.975 7.74375C21.325 8.09375 21.5 8.51875 21.5 9.01875V19.4188C21.5 19.9188 21.325 20.3438 20.975 20.6938C20.625 21.0438 20.2 21.2188 19.7 21.2188H4.3ZM4.3 19.7188H19.7C19.7667 19.7188 19.8333 19.6854 19.9 19.6187C19.9667 19.5521 20 19.4854 20 19.4188V9.01875C20 8.95208 19.9667 8.88542 19.9 8.81875C19.8333 8.75208 19.7667 8.71875 19.7 8.71875H4.3C4.23333 8.71875 4.16667 8.75208 4.1 8.81875C4.03333 8.88542 4 8.95208 4 9.01875V19.4188C4 19.4854 4.03333 19.5521 4.1 19.6187C4.16667 19.6854 4.23333 19.7188 4.3 19.7188ZM10 7.21875H14V5.51875C14 5.45208 13.9667 5.38542 13.9 5.31875C13.8333 5.25208 13.7667 5.21875 13.7 5.21875H10.3C10.2333 5.21875 10.1667 5.25208 10.1 5.31875C10.0333 5.38542 10 5.45208 10 5.51875V7.21875Z" fill="#1C1B1F"/>
</g>
</g>
</svg>
