<svg width="16" height="16" viewBox="0 0 16 16" fill="none" xmlns="http://www.w3.org/2000/svg">
<g id="assignment_ind" clip-path="url(#clip0_3123_220)">
<path id="Vector" d="M12.6667 2.00033H9.88C9.6 1.22699 8.86667 0.666992 8 0.666992C7.13333 0.666992 6.4 1.22699 6.12 2.00033H3.33333C2.6 2.00033 2 2.60033 2 3.33366V12.667C2 13.4003 2.6 14.0003 3.33333 14.0003H12.6667C13.4 14.0003 14 13.4003 14 12.667V3.33366C14 2.60033 13.4 2.00033 12.6667 2.00033ZM8 2.00033C8.36667 2.00033 8.66667 2.30033 8.66667 2.66699C8.66667 3.03366 8.36667 3.33366 8 3.33366C7.63333 3.33366 7.33333 3.03366 7.33333 2.66699C7.33333 2.30033 7.63333 2.00033 8 2.00033ZM8 4.66699C9.10667 4.66699 10 5.56033 10 6.66699C10 7.77366 9.10667 8.66699 8 8.66699C6.89333 8.66699 6 7.77366 6 6.66699C6 5.56033 6.89333 4.66699 8 4.66699ZM12 12.667H4V11.7337C4 10.4003 6.66667 9.66699 8 9.66699C9.33333 9.66699 12 10.4003 12 11.7337V12.667Z" fill="#323232"/>
</g>
<defs>
<clipPath id="clip0_3123_220">
<rect width="16" height="16" fill="white"/>
</clipPath>
</defs>
</svg>
