<svg width="16" height="17" viewBox="0 0 16 17" fill="none" xmlns="http://www.w3.org/2000/svg">
<g id="business" clip-path="url(#clip0_3123_226)">
<path id="Vector" d="M8.00004 5.16667V3.83333C8.00004 3.1 7.40004 2.5 6.66671 2.5H2.66671C1.93337 2.5 1.33337 3.1 1.33337 3.83333V13.1667C1.33337 13.9 1.93337 14.5 2.66671 14.5H13.3334C14.0667 14.5 14.6667 13.9 14.6667 13.1667V6.5C14.6667 5.76667 14.0667 5.16667 13.3334 5.16667H8.00004ZM4.00004 13.1667H2.66671V11.8333H4.00004V13.1667ZM4.00004 10.5H2.66671V9.16667H4.00004V10.5ZM4.00004 7.83333H2.66671V6.5H4.00004V7.83333ZM4.00004 5.16667H2.66671V3.83333H4.00004V5.16667ZM6.66671 13.1667H5.33337V11.8333H6.66671V13.1667ZM6.66671 10.5H5.33337V9.16667H6.66671V10.5ZM6.66671 7.83333H5.33337V6.5H6.66671V7.83333ZM6.66671 5.16667H5.33337V3.83333H6.66671V5.16667ZM12.6667 13.1667H8.00004V11.8333H9.33337V10.5H8.00004V9.16667H9.33337V7.83333H8.00004V6.5H12.6667C13.0334 6.5 13.3334 6.8 13.3334 7.16667V12.5C13.3334 12.8667 13.0334 13.1667 12.6667 13.1667ZM12 7.83333H10.6667V9.16667H12V7.83333ZM12 10.5H10.6667V11.8333H12V10.5Z" fill="#323232"/>
</g>
<defs>
<clipPath id="clip0_3123_226">
<rect width="16" height="16" fill="white" transform="translate(0 0.5)"/>
</clipPath>
</defs>
</svg>
