<svg width="16" height="17" viewBox="0 0 16 17" fill="none" xmlns="http://www.w3.org/2000/svg">
<g id="home">
<path id="Vector" d="M2.78571 14.3333C2.78571 15.25 3.49286 16 4.35714 16H10.6429C11.5071 16 12.2143 15.25 12.2143 14.3333V6C12.2143 5.08333 11.5071 4.33333 10.6429 4.33333H4.35714C3.49286 4.33333 2.78571 5.08333 2.78571 6V14.3333ZM5.14286 6H9.85714C10.2893 6 10.6429 6.375 10.6429 6.83333V13.5C10.6429 13.9583 10.2893 14.3333 9.85714 14.3333H5.14286C4.71071 14.3333 4.35714 13.9583 4.35714 13.5V6.83333C4.35714 6.375 4.71071 6 5.14286 6ZM10.25 1.83333L9.69214 1.24167C9.55071 1.09167 9.34643 1 9.14214 1H5.85786C5.65357 1 5.44929 1.09167 5.30786 1.24167L4.75 1.83333H2.78571C2.35357 1.83333 2 2.20833 2 2.66667C2 3.125 2.35357 3.5 2.78571 3.5H12.2143C12.6464 3.5 13 3.125 13 2.66667C13 2.20833 12.6464 1.83333 12.2143 1.83333H10.25Z" fill="#7A0000"/>
</g>
</svg>
