<svg width="16" height="17" viewBox="0 0 16 17" fill="none" xmlns="http://www.w3.org/2000/svg">
<g id="email" clip-path="url(#clip0_3123_242)">
<path id="Vector" d="M13.3334 3.16699H2.66671C1.93337 3.16699 1.34004 3.76699 1.34004 4.50033L1.33337 12.5003C1.33337 13.2337 1.93337 13.8337 2.66671 13.8337H13.3334C14.0667 13.8337 14.6667 13.2337 14.6667 12.5003V4.50033C14.6667 3.76699 14.0667 3.16699 13.3334 3.16699ZM13.0667 6.00033L8.35337 8.94699C8.14004 9.08033 7.86004 9.08033 7.64671 8.94699L2.93337 6.00033C2.76671 5.89366 2.66671 5.71366 2.66671 5.52033C2.66671 5.07366 3.15337 4.80699 3.53337 5.04033L8.00004 7.83366L12.4667 5.04033C12.8467 4.80699 13.3334 5.07366 13.3334 5.52033C13.3334 5.71366 13.2334 5.89366 13.0667 6.00033Z" fill="#323232"/>
</g>
<defs>
<clipPath id="clip0_3123_242">
<rect width="16" height="16" fill="white" transform="translate(0 0.5)"/>
</clipPath>
</defs>
</svg>
