<svg width="16" height="17" viewBox="0 0 16 17" fill="none" xmlns="http://www.w3.org/2000/svg">
<g id="face" clip-path="url(#clip0_3123_215)">
<path id="Vector" d="M6.00004 8.33301C5.54004 8.33301 5.16671 8.70634 5.16671 9.16634C5.16671 9.62634 5.54004 9.99967 6.00004 9.99967C6.46004 9.99967 6.83337 9.62634 6.83337 9.16634C6.83337 8.70634 6.46004 8.33301 6.00004 8.33301ZM10 8.33301C9.54004 8.33301 9.16671 8.70634 9.16671 9.16634C9.16671 9.62634 9.54004 9.99967 10 9.99967C10.46 9.99967 10.8334 9.62634 10.8334 9.16634C10.8334 8.70634 10.46 8.33301 10 8.33301ZM8.00004 1.83301C4.32004 1.83301 1.33337 4.81967 1.33337 8.49967C1.33337 12.1797 4.32004 15.1663 8.00004 15.1663C11.68 15.1663 14.6667 12.1797 14.6667 8.49967C14.6667 4.81967 11.68 1.83301 8.00004 1.83301ZM8.00004 13.833C5.06004 13.833 2.66671 11.4397 2.66671 8.49967C2.66671 8.30634 2.68004 8.11301 2.70004 7.92634C4.27337 7.22634 5.52004 5.93967 6.17337 4.34634C7.38004 6.05301 9.36671 7.16634 11.6134 7.16634C12.1334 7.16634 12.6334 7.10634 13.1134 6.99301C13.2534 7.46634 13.3334 7.97301 13.3334 8.49967C13.3334 11.4397 10.94 13.833 8.00004 13.833Z" fill="#323232"/>
</g>
<defs>
<clipPath id="clip0_3123_215">
<rect width="16" height="16" fill="white" transform="translate(0 0.5)"/>
</clipPath>
</defs>
</svg>
