<svg width="16" height="17" viewBox="0 0 16 17" fill="none" xmlns="http://www.w3.org/2000/svg">
<g id="user">
<path id="Vector" d="M8 3.6625C9.015 3.6625 9.8375 4.485 9.8375 5.5C9.8375 6.515 9.015 7.3375 8 7.3375C6.985 7.3375 6.1625 6.515 6.1625 5.5C6.1625 4.485 6.985 3.6625 8 3.6625ZM8 11.5375C10.5988 11.5375 13.3375 12.815 13.3375 13.375V14.3375H2.6625V13.375C2.6625 12.815 5.40125 11.5375 8 11.5375ZM8 2C6.06625 2 4.5 3.56625 4.5 5.5C4.5 7.43375 6.06625 9 8 9C9.93375 9 11.5 7.43375 11.5 5.5C11.5 3.56625 9.93375 2 8 2ZM8 9.875C5.66375 9.875 1 11.0475 1 13.375V15.125C1 15.6062 1.39375 16 1.875 16H14.125C14.6062 16 15 15.6062 15 15.125V13.375C15 11.0475 10.3363 9.875 8 9.875Z" fill="#323232"/>
</g>
</svg>
