<svg width="12" height="12" viewBox="0 0 12 12" fill="none" xmlns="http://www.w3.org/2000/svg">
<path id="Vector" d="M6 0C2.682 0 0 2.682 0 6C0 9.318 2.682 12 6 12C9.318 12 12 9.318 12 6C12 2.682 9.318 0 6 0ZM8.58 8.58C8.346 8.814 7.968 8.814 7.734 8.58L6 6.846L4.266 8.58C4.032 8.814 3.654 8.814 3.42 8.58C3.186 8.346 3.186 7.968 3.42 7.734L5.154 6L3.42 4.266C3.186 4.032 3.186 3.654 3.42 3.42C3.654 3.186 4.032 3.186 4.266 3.42L6 5.154L7.734 3.42C7.968 3.186 8.346 3.186 8.58 3.42C8.814 3.654 8.814 4.032 8.58 4.266L6.846 6L8.58 7.734C8.808 7.962 8.808 8.346 8.58 8.58Z" fill="#757575"/>
</svg>
